<?xml version="1.0" encoding="UTF-8" standalone="no"?>
<!-- Created with Inkscape (http://www.inkscape.org/) -->

<svg
   xmlns:dc="http://purl.org/dc/elements/1.1/"
   xmlns:cc="http://creativecommons.org/ns#"
   xmlns:rdf="http://www.w3.org/1999/02/22-rdf-syntax-ns#"
   xmlns:svg="http://www.w3.org/2000/svg"
   xmlns="http://www.w3.org/2000/svg"
   xmlns:sodipodi="http://sodipodi.sourceforge.net/DTD/sodipodi-0.dtd"
   xmlns:inkscape="http://www.inkscape.org/namespaces/inkscape"
   width="55.143375"
   height="55.14175"
   id="svg5686"
   version="1.1"
   inkscape:version="0.48.0 r9654"
   sodipodi:docname="Nuovo documento 8">
  <defs
     id="defs5688" />
  <sodipodi:namedview
     id="base"
     pagecolor="#ffffff"
     bordercolor="#666666"
     borderopacity="1.0"
     inkscape:pageopacity="0.0"
     inkscape:pageshadow="2"
     inkscape:zoom="0.35"
     inkscape:cx="27.574692"
     inkscape:cy="27.572342"
     inkscape:document-units="px"
     inkscape:current-layer="layer1"
     showgrid="false"
     fit-margin-top="0"
     fit-margin-left="0"
     fit-margin-right="0"
     fit-margin-bottom="0"
     inkscape:window-width="493"
     inkscape:window-height="396"
     inkscape:window-x="0"
     inkscape:window-y="345"
     inkscape:window-maximized="0" />
  <metadata
     id="metadata5691">
    <rdf:RDF>
      <cc:Work
         rdf:about="">
        <dc:format>image/svg+xml</dc:format>
        <dc:type
           rdf:resource="http://purl.org/dc/dcmitype/StillImage" />
        <dc:title></dc:title>
      </cc:Work>
    </rdf:RDF>
  </metadata>
  <g
     inkscape:label="Livello 1"
     inkscape:groupmode="layer"
     id="layer1"
     transform="translate(-347.42531,-504.79277)">
    <g
       transform="translate(58.875706,58.196863)"
       id="g2446"
       style="fill:#008000;fill-opacity:1"
       inkscape:export-filename="C:\xampp\htdocs\yago\images\4.png"
       inkscape:export-xdpi="80.181862"
       inkscape:export-ydpi="80.181862">
      <path
         inkscape:export-ydpi="78.545456"
         inkscape:export-xdpi="78.545456"
         inkscape:export-filename="C:\xampp\htdocs\yago\images\nw.png"
         transform="matrix(0.336112,0,0,-0.2910815,212.40973,575.89977)"
         d="m 387.5186,303.92487 0,91.16033 -78.94716,45.58016 -78.94716,-45.58016 0,-91.16033 78.94716,-45.58016 z"
         inkscape:randomized="0"
         inkscape:rounded="0"
         inkscape:flatsided="false"
         sodipodi:arg2="0.52359878"
         sodipodi:arg1="-0.52359878"
         sodipodi:r2="91.160324"
         sodipodi:r1="91.160324"
         sodipodi:cy="349.50504"
         sodipodi:cx="308.57144"
         sodipodi:sides="3"
         id="path2448"
         style="fill:#008000;fill-opacity:1;stroke:#000000;stroke-width:6.16976309;stroke-miterlimit:4;stroke-opacity:1;stroke-dasharray:none;stroke-dashoffset:0"
         sodipodi:type="star" />
    </g>
    <path
       style="fill:#cc9900;fill-rule:evenodd;stroke:#000000;stroke-width:1px;stroke-linecap:butt;stroke-linejoin:miter;stroke-opacity:1"
       d="m 362.4471,548.88593 2.04501,-2.90607 -0.21526,-10.22505 4.95107,-0.21526 -0.21526,10.22505 2.15264,3.87475 -3.98239,-2.04501 -0.64579,2.47554 -0.96869,-2.47554 -3.12133,1.29159 z"
       id="path2456"
       inkscape:export-filename="C:\xampp\htdocs\yago\images\4.png"
       inkscape:export-xdpi="80.181862"
       inkscape:export-ydpi="80.181862"
       inkscape:connector-curvature="0" />
    <path
       id="path2458"
       d="m 383.07088,546.9667 1.76155,-2.50326 -0.18542,-8.80777 4.26481,-0.18542 -0.18542,8.80776 1.85426,3.33768 -3.4304,-1.76156 -0.55627,2.13241 -0.83442,-2.13241 -2.68869,1.11257 z"
       style="fill:#cc9900;fill-rule:evenodd;stroke:#000000;stroke-width:0.86139113px;stroke-linecap:butt;stroke-linejoin:miter;stroke-opacity:1"
       inkscape:export-filename="C:\xampp\htdocs\yago\images\4.png"
       inkscape:export-xdpi="80.181862"
       inkscape:export-ydpi="80.181862"
       inkscape:connector-curvature="0" />
    <path
       style="fill:#cc9900;fill-rule:evenodd;stroke:#000000;stroke-width:0.71585172px;stroke-linecap:butt;stroke-linejoin:miter;stroke-opacity:1"
       d="m 373.37262,544.95151 1.46392,-2.08032 -0.15409,-7.31962 3.54423,-0.15409 -0.15409,7.31961 1.54097,2.77375 -2.85081,-1.46393 -0.46228,1.77213 -0.69344,-1.77213 -2.23441,0.9246 z"
       id="path2460"
       inkscape:export-filename="C:\xampp\htdocs\yago\images\4.png"
       inkscape:export-xdpi="80.181862"
       inkscape:export-ydpi="80.181862"
       inkscape:connector-curvature="0" />
    <path
       style="fill:#006600;fill-rule:evenodd;stroke:#000000;stroke-width:1px;stroke-linecap:butt;stroke-linejoin:miter;stroke-opacity:1"
       d="m 354.15943,530.05031 8.82583,7.74951 c 0,0 14.7456,0.3229 15.71429,0.21527 0.96868,-0.10763 13.13111,-5.48924 13.56164,-6.0274 0.43053,-0.53816 3.76712,-7.53424 3.22896,-7.96477 -0.53816,-0.43053 -7.53425,-7.42662 -10.76321,-8.3953 -3.22896,-0.96869 -12.80821,-2.47554 -15.71428,-1.39922 -2.90607,1.07632 -14.53033,9.04109 -14.96086,10.00978 -0.43053,0.96869 0.3229,5.91977 0.10763,5.81213 z"
       id="path2450"
       inkscape:export-filename="C:\xampp\htdocs\yago\images\4.png"
       inkscape:export-xdpi="80.181862"
       inkscape:export-ydpi="80.181862"
       inkscape:connector-curvature="0" />
    <path
       style="fill:#006600;fill-rule:evenodd;stroke:#000000;stroke-width:1px;stroke-linecap:butt;stroke-linejoin:miter;stroke-opacity:1"
       d="m 375.04006,531.88006 c -0.10764,0.43053 -1.39922,7.64188 0.75342,8.50293 2.15264,0.86106 10.22505,0.75343 12.16242,0.6458 1.93738,-0.10764 7.64188,-3.3366 6.88846,-4.84345 -0.75343,-1.50685 1.29158,-4.84344 -2.90607,-5.59687 -4.19765,-0.75342 -11.409,-2.15264 -13.23874,-1.50685 -1.82975,0.6458 -3.44423,2.90607 -3.65949,2.79844 z"
       id="path2452"
       inkscape:export-filename="C:\xampp\htdocs\yago\images\4.png"
       inkscape:export-xdpi="80.181862"
       inkscape:export-ydpi="80.181862"
       inkscape:connector-curvature="0" />
    <path
       style="fill:#006600;fill-rule:evenodd;stroke:#000000;stroke-width:1px;stroke-linecap:butt;stroke-linejoin:miter;stroke-opacity:1"
       d="m 360.50973,526.06793 c -1.29159,0.75342 -6.0274,8.0724 -5.91977,8.93346 0.10763,0.86106 1.07632,4.73581 2.15264,5.3816 1.07632,0.6458 5.91977,3.22897 7.85714,3.22897 1.93738,0 8.7182,-0.3229 9.68689,-0.86106 0.96869,-0.53816 4.09002,-6.24266 3.3366,-8.50294 -0.75343,-2.26027 -1.50685,-8.50293 -4.73582,-8.93346 -3.22896,-0.43053 -12.27005,0.75343 -12.37768,0.75343 z"
       id="path2454"
       inkscape:export-xdpi="80.181862"
       inkscape:export-ydpi="80.181862"
       inkscape:export-filename="C:\xampp\htdocs\yago\images\4.png"
       inkscape:connector-curvature="0" />
  </g>
</svg>
